<?xml version="1.0" standalone="no"?><!DOCTYPE svg PUBLIC "-//W3C//DTD SVG 1.1//EN" "http://www.w3.org/Graphics/SVG/1.1/DTD/svg11.dtd"><svg t="1632223459908" class="icon" viewBox="0 0 1024 1024" version="1.1" xmlns="http://www.w3.org/2000/svg" p-id="2423" xmlns:xlink="http://www.w3.org/1999/xlink" width="200" height="200"><defs><style type="text/css"></style></defs><path d="M851.7 707.2c-22.1 0-40 17.9-40 39.9 0 1.5 0.1 2.9 0.2 4.3V819c0 16-13 29-28.9 29H206.7c-15.9 0-28.9-13-28.9-29V207.8c0-16 13-29 28.9-29H783c15.9 0 28.9 13 28.9 29v66c-0.2 1.4-0.2 2.9-0.2 4.3 0 22 17.9 39.9 40 39.9 21.1 0 38.4-16.3 39.9-37h0.1v-73.2c0-60.2-48.7-109.1-108.7-109.1H206.7c-59.9 0-108.7 49-108.7 109.1v611.3c0 60.2 48.7 109.1 108.7 109.1H783c59.9 0 108.7-49 108.7-109.1V747c0-22-17.9-39.8-40-39.8z" p-id="2424"></path><path d="M930.7 493.9c-1.8-3.1-4-6.1-6.7-8.8-1.2-1.2-2.5-2.3-3.7-3.3l-162.2-160c-15.9-15.6-42-15.2-58.2 0.9-16.1 16.1-16.4 42.1-0.5 57.8l93.2 91.9h-416c-22.8 0-41.5 18.7-41.5 41.5s18.7 41.5 41.5 41.5h418.6l-91.3 91.3c-16.1 16.1-16.1 42.6 0 58.7s42.6 16.1 58.7 0L924 543.9c13.7-13.7 16-34.5 6.7-50z" p-id="2425"></path></svg>